<?xml version="1.0" encoding="utf-8"?>
<!-- Generator: Adobe Illustrator 17.1.0, SVG Export Plug-In . SVG Version: 6.00 Build 0)  -->
<!DOCTYPE svg PUBLIC "-//W3C//DTD SVG 1.1//EN" "http://www.w3.org/Graphics/SVG/1.1/DTD/svg11.dtd">
<svg version="1.1" id="Layer_1" xmlns="http://www.w3.org/2000/svg" xmlns:xlink="http://www.w3.org/1999/xlink" x="0px" y="0px"
	 viewBox="0 0 100 100" enable-background="new 0 0 100 100" xml:space="preserve">
<g>
	<g>
		<g>
			<path d="M37.2,49.7c1.6,0,3.2-0.6,4.3-1.6l7.9,8.2l-0.3,20.3c0,0.2,0.2,0.4,0.4,0.4c0.2,0,0.4-0.2,0.4-0.4l0.2-11.7c0,0,0,0,0,0
				l7.7-7.4c1.1,1,2.6,1.7,4.3,1.7c3.6,0.1,6.6-2.8,6.6-6.4c0.1-3.6-2.8-6.6-6.4-6.6c-3.6-0.1-6.6,2.8-6.6,6.4
				c0,1.6,0.6,3.2,1.6,4.3l-7.1,6.9l0.4-28.1c3.4-0.2,6.1-3,6.2-6.4c0.1-3.6-2.8-6.6-6.4-6.6c-3.6-0.1-6.6,2.8-6.6,6.4
				c0,3.5,2.6,6.3,6,6.6L49.5,55l-7.3-7.5c1-1.1,1.7-2.6,1.7-4.3c0.1-3.6-2.8-6.6-6.4-6.6c-3.6-0.1-6.6,2.8-6.6,6.4
				C30.7,46.7,33.6,49.6,37.2,49.7z"/>
		</g>
	</g>
</g>
</svg>
