<?xml version="1.0" encoding="utf-8"?>
<!-- Generator: Adobe Illustrator 17.1.0, SVG Export Plug-In . SVG Version: 6.00 Build 0)  -->
<!DOCTYPE svg PUBLIC "-//W3C//DTD SVG 1.1//EN" "http://www.w3.org/Graphics/SVG/1.1/DTD/svg11.dtd">
<svg version="1.1" id="Layer_1" xmlns="http://www.w3.org/2000/svg" xmlns:xlink="http://www.w3.org/1999/xlink" x="0px" y="0px"
	 viewBox="0 0 200 200" enable-background="new 0 0 200 200" xml:space="preserve">
<g>
	<g>
		<g>
			<path d="M106.3,85.1c0-4-2.5-9.7-6.4-11.2c-3.9,1.6-6.4,7.3-6.4,11.2s2.5,9.7,6.4,11.2C103.8,94.7,106.3,89,106.3,85.1z"/>
			<path d="M103,101.8c3.3,2.7,9.5,2,12.9,0.1c3.5-1.9,7.2-6.9,6.6-11.1c-3.3-2.7-9.5-2-12.9-0.1C106.2,92.6,102.4,97.6,103,101.8z"
				/>
			<path d="M115.9,118.2c3.5-1.9,7.2-6.9,6.6-11.1c-3.3-2.7-9.5-2-12.9-0.1c-3.5,1.9-7.2,6.9-6.6,11.1
				C106.3,120.7,112.5,120.1,115.9,118.2z"/>
			<path d="M83.9,101.9c3.5,1.9,9.6,2.6,12.9-0.1c0.6-4.2-3.2-9.1-6.6-11.1c-3.5-1.9-9.6-2.6-12.9,0.1C76.7,95,80.4,99.9,83.9,101.9
				z"/>
			<path d="M83.9,118.2c3.5,1.9,9.6,2.6,12.9-0.1c0.6-4.2-3.2-9.1-6.6-11.1s-9.6-2.6-12.9,0.1C76.7,111.3,80.4,116.2,83.9,118.2z"/>
			<path d="M98.7,99.5v24.5c0,0.5,0.6,0.8,1.2,0.8c0.7,0,1.2-0.4,1.2-0.8V99.5c0-0.5-0.6-0.8-1.2-0.8C99.2,98.7,98.7,99,98.7,99.5z"
				/>
		</g>
	</g>
</g>
</svg>
