<?xml version="1.0" encoding="utf-8"?>
<!-- Generator: Adobe Illustrator 17.1.0, SVG Export Plug-In . SVG Version: 6.00 Build 0)  -->
<!DOCTYPE svg PUBLIC "-//W3C//DTD SVG 1.1//EN" "http://www.w3.org/Graphics/SVG/1.1/DTD/svg11.dtd">
<svg version="1.1" id="Layer_1" fill="rgba(251, 110, 156, 0.3)" xmlns="http://www.w3.org/2000/svg" xmlns:xlink="http://www.w3.org/1999/xlink" x="0px" y="0px"
	 viewBox="0 0 100 100" enable-background="new 0 0 100 100" xml:space="preserve">
<g>
	<path d="M63.2,37.5c0-7-5.7-12.7-12.7-12.7s-12.7,5.7-12.7,12.7l0,0c-7,0-12.7,5.7-12.7,12.7s5.7,12.7,12.7,12.7
		c0,7,5.7,12.7,12.7,12.7S63.2,70,63.2,62.9c7,0,12.7-5.7,12.7-12.7S70.2,37.5,63.2,37.5z M50.5,57.3c-4,0-7.2-3.2-7.2-7.2
		s3.2-7.2,7.2-7.2s7.2,3.2,7.2,7.2S54.5,57.3,50.5,57.3z"/>
</g>
</svg>
