<?xml version="1.0" encoding="utf-8"?>
<!-- Generator: Adobe Illustrator 17.1.0, SVG Export Plug-In . SVG Version: 6.00 Build 0)  -->
<!DOCTYPE svg PUBLIC "-//W3C//DTD SVG 1.1//EN" "http://www.w3.org/Graphics/SVG/1.1/DTD/svg11.dtd">
<svg version="1.1" id="Layer_1" xmlns="http://www.w3.org/2000/svg" xmlns:xlink="http://www.w3.org/1999/xlink" x="0px" y="0px"
	 viewBox="0 0 100 100" enable-background="new 0 0 100 100" xml:space="preserve">
<g>
	<g transform="translate(0.000000,511.000000) scale(0.100000,-0.100000)">
		<path d="M501.6,4864.7c-12.8-2.2-24.8-11.1-29.5-21.6c-2-4.5-2.3-7-2.2-17.4c0.1-13.7,1.8-22.9,7.3-39c9.1-26.5,24.2-51.7,31-51.7
			c7.6,0,25.1,29.5,34.9,59.1c4.6,13.9,6.2,22.6,6.2,33.8c0,9.8-1.2,14.2-5.6,20.7C535.5,4860.5,517.3,4867.5,501.6,4864.7z"/>
		<path d="M390.8,4836.3c-12.7-4.1-22.8-12.9-28.1-24.2c-2.3-5-2.8-7.5-2.8-14.4c0-7.5,0.4-9.2,3.6-15.3
			c7.9-15.3,21.1-29.5,40.6-44.2c12.8-9.5,22.8-15.3,31.4-18.1c6.6-2.1,7.3-2.2,9.7-0.6c4.1,2.7,5.3,10.9,4.5,30.8
			c-1.5,37.1-9.8,66.5-22.6,78.8C418.6,4837.5,403.4,4840.5,390.8,4836.3z"/>
		<path d="M607.2,4833.8c-12.2-2.7-18.6-8.4-26.4-23.9c-10.9-21.4-17.4-61.5-13.7-83.7c1.9-11.8,6.2-12.9,21.5-5.1
			c29.6,15.2,56.4,38.4,66.3,57.6c3,5.6,3.4,7.5,3.4,14.9c0,7.1-0.5,9.5-2.8,14.6c-4.1,8.6-8.8,14.1-15.9,18.8
			C629.1,4833.7,617.8,4836.1,607.2,4833.8z"/>
		<path d="M306.9,4755.9c-12.6-4.9-23.9-19.8-26.6-34.8c-3-17.3,4.1-30.9,20.9-39.8c24.4-13,78.4-19.4,94.2-11.3
			c2.6,1.4,3.1,2.3,3.1,5.8c0,8.8-19.3,38.9-37.7,58.7c-7.1,7.6-18.2,16.2-26,19.9c-6.3,3.1-8.5,3.6-14.9,3.5
			C315.1,4758.1,310.4,4757.3,306.9,4755.9z"/>
		<path d="M680.2,4751.9c-10.1-4.9-18.8-11.6-29.8-23c-20.4-21-37.5-49.1-35.3-57.8c1.4-5.4,5.6-6.3,27-6.2
			c49,0.1,81.8,12.1,89.6,32.7c2,5.3,2.2,7.7,1.9,15.7c-0.4,7.9-1.1,10.8-3.8,16.6c-4.4,9.2-11.3,16.6-19.4,20.9
			c-5.6,3.1-7.9,3.6-15.1,4C687.6,4755.1,686.2,4754.8,680.2,4751.9z"/>
		<path d="M495.4,4715.3c-1.5-0.2-5.5-0.9-9-1.6c-48.9-8.4-86-53.4-86-104.3c0-48.8,32.3-90.5,80-103c8.5-2.3,12.4-2.7,25.4-2.7
			c13.1,0,16.8,0.4,25.4,2.7c47.7,12.7,80,54.3,80,103c0,49.9-35.1,93.7-83.6,104C520.2,4715,500.4,4716.3,495.4,4715.3z"/>
		<path d="M273.1,4646.4c-28.1-14.1-27.9-60.6,0.3-74c5.4-2.5,7.6-3,15.3-3c5,0,12.2,0.5,16.1,1.1c24.7,3.6,69.1,25.1,75.2,36.4
			c1.8,3.3,1.8,3.7,0,6.2c-3,4.6-11,9.8-28.6,18.6c-25.7,12.8-44,17.9-62.8,17.9C280.6,4649.5,278.8,4649.1,273.1,4646.4z"/>
		<path d="M706.9,4648.5c-25.3-3.7-70.9-26-75.4-36.9c-1.1-2.6-1.1-3.6,0.4-5.8c3-4.5,11.1-9.7,28.6-18.5
			c26.2-12.9,43.6-17.9,61.9-17.9c8.5,0,10.5,0.4,16.1,3c7.4,3.6,13.4,9.8,17.1,17.7c9.8,21.4,1.9,47.5-17.1,56.5
			c-5.7,2.6-7.4,3-16.3,2.8C716.7,4649.3,709.7,4648.9,706.9,4648.5z"/>
		<path d="M350,4553.6c-29.8-3-54.6-11.6-63.8-22.4c-6-7.1-8.3-14.3-7.8-25.6c0.5-11.4,4-20,11.7-28.6c7.2-7.9,16-12.2,26.3-12.9
			c7.4-0.4,8.6-0.2,15.2,2.8c3.9,1.8,10.2,5.6,14,8.4c15.3,11.4,36.2,36.2,45,53.4c11.2,21.7,9.3,24.8-15.8,25.3
			C366.6,4554.3,355.5,4554.1,350,4553.6z"/>
		<path d="M625.4,4551.5c-3.1-0.6-7-1.8-8.6-2.6c-4.6-2.4-4.3-7.7,1.2-18.1c15.8-30,40.1-57.2,59.5-66.4c14-6.6,27.8-4.2,40,7.2
			c18.3,17.1,20,45.4,3.6,59.5c-5.3,4.5-18.3,11-28.8,14.1C674.4,4550.5,639.2,4553.9,625.4,4551.5z"/>
		<path d="M425.2,4498.9c-15.7-7.7-37.3-22.8-49.6-34.6c-23.9-23.3-28.5-42.7-14.4-61.7c8.4-11.5,21.9-18.2,36.5-18.1
			c7,0,9.1,0.5,15,3.4c8.4,4.1,11.9,8.2,18.5,21.7c9.2,18.6,14,41.8,14.1,67.5c0.1,14.9-0.1,17.4-2,21.1
			C440.3,4504.2,436.4,4504.3,425.2,4498.9z"/>
		<path d="M565.7,4498.4c-3.4-3.4-4.3-12.2-3.5-31.8c1.3-27.2,5.5-47.2,13.5-63.5c5.1-10.2,9.9-15.5,17.6-19.1
			c15.3-7,35-2.4,47.7,11c8,8.4,11.1,15.8,11.1,26.3c0,7.5-0.4,9.2-3.6,15.3c-5.3,10.1-14,21.2-23.8,30.2
			c-19.1,17.5-40.3,30.9-52.9,33.6C568.9,4500.8,567.8,4500.5,565.7,4498.4z"/>
		<path d="M496.6,4478.9c-5.7-6-13-18.7-20.1-34.7c-9.8-22.1-13.7-37.3-13.7-53.4c0-9,0.3-10.5,3.3-16.4
			c13.9-27.8,59.7-27.4,73.4,0.6c2.6,5.5,3,7,2.8,17.6c-0.2,13.3-2.1,23.8-7.5,39.5c-9.4,27.9-24.2,51.7-32.1,51.7
			C502,4484,499.2,4481.6,496.6,4478.9z"/>
	</g>
</g>
</svg>
