<?xml version="1.0" encoding="utf-8"?>
<!-- Generator: Adobe Illustrator 17.1.0, SVG Export Plug-In . SVG Version: 6.00 Build 0)  -->
<!DOCTYPE svg PUBLIC "-//W3C//DTD SVG 1.1//EN" "http://www.w3.org/Graphics/SVG/1.1/DTD/svg11.dtd">
<svg version="1.1" id="Layer_1" xmlns="http://www.w3.org/2000/svg" xmlns:xlink="http://www.w3.org/1999/xlink" x="0px" y="0px"
	 viewBox="0 0 100 100" enable-background="new 0 0 100 100" xml:space="preserve">
<path d="M66.1,56c-3.6,0-6.5,4-6.5,9c0,5,2.9,9,6.5,9c3.6,0,6.5-4,6.5-9C72.6,60,69.7,56,66.1,56z M88.7,32.6
	c0.7-1.8,0.8-12.2-3.2-22.1c0,0-9.1,1-22.8,10.4c-2.9-0.8-7.7-1.2-12.6-1.2s-9.7,0.4-12.6,1.2c-13.7-9.4-22.8-10.4-22.8-10.4
	c-3.9,9.9-3.9,20.3-3.2,22.1C7,37.6,4.2,43.7,4.2,52c0,35.9,29.8,36.5,37.3,36.5c1.7,0,5.1,0,8.7,0c3.6,0,7,0,8.7,0
	c7.5,0,37.3-0.6,37.3-36.5C96.2,43.7,93.4,37.6,88.7,32.6z M50.3,84h-0.3c-18.9,0-33.5-2.3-33.5-20.6c0-4.4,1.5-8.5,5.2-11.8
	C27.9,46,38.3,49,50.1,49c0,0,0.1,0,0.1,0c0,0,0.1,0,0.1,0c11.8,0,22.2-3,28.3,2.7c3.7,3.4,5.2,7.5,5.2,11.8
	C83.9,81.8,69.2,84,50.3,84z M34.3,56c-3.6,0-6.5,4-6.5,9c0,5,2.9,9,6.5,9c3.6,0,6.5-4,6.5-9C40.8,60,37.9,56,34.3,56z"/>
</svg>
