<?xml version="1.0" encoding="utf-8"?>
<!-- Generator: Adobe Illustrator 17.1.0, SVG Export Plug-In . SVG Version: 6.00 Build 0)  -->
<!DOCTYPE svg PUBLIC "-//W3C//DTD SVG 1.1//EN" "http://www.w3.org/Graphics/SVG/1.1/DTD/svg11.dtd">
<svg version="1.1" id="Layer_1" xmlns="http://www.w3.org/2000/svg" xmlns:xlink="http://www.w3.org/1999/xlink" x="0px" y="0px"
	 viewBox="0 0 100 100" enable-background="new 0 0 100 100" xml:space="preserve">
<g>
	<path d="M35,24.1c0,3.3-2.5,6-6.5,6c-3.8,0-6.3-2.7-6.3-6c0-3.4,2.6-6,6.5-6C32.5,18.1,34.9,20.7,35,24.1z M22.5,73.9V35h12.1v39
		H22.5z"/>
	<path d="M41.9,47.4c0-4.8-0.2-8.9-0.3-12.4h10.5l0.6,5.4h0.3c1.6-2.6,5.5-6.3,12-6.3c8,0,14,5.4,14,16.8v23H66.7V52.3
		c0-5-1.8-8.4-6.1-8.4c-3.3,0-5.4,2.3-6.2,4.5c-0.3,0.8-0.4,1.9-0.4,3v22.5H41.9V47.4z"/>
</g>
</svg>
