<?xml version="1.0" encoding="utf-8"?>
<!-- Generator: Adobe Illustrator 18.1.1, SVG Export Plug-In . SVG Version: 6.00 Build 0)  -->
<!DOCTYPE svg PUBLIC "-//W3C//DTD SVG 1.1//EN" "http://www.w3.org/Graphics/SVG/1.1/DTD/svg11.dtd">
<svg version="1.1" id="Layer_1" xmlns="http://www.w3.org/2000/svg" xmlns:xlink="http://www.w3.org/1999/xlink" x="0px" y="0px"
	 viewBox="0 0 100 100" enable-background="new 0 0 100 100" xml:space="preserve">
<g>
	<path d="M8.2,26.9c2.4,1.3,36.2,19.5,37.5,20.1c1.3,0.7,2.9,1,4.5,1s3.3-0.3,4.5-1c1.3-0.7,35.1-18.8,37.5-20.1
		c2.4-1.3,4.8-5.4,0.3-5.4H7.9C3.4,21.5,5.7,25.6,8.2,26.9z M93.3,36.9C90.5,38.3,56.4,56.2,54.7,57c-1.7,0.9-2.9,1-4.5,1
		s-2.8-0.1-4.5-1C44,56.2,9.9,38.3,7.1,36.9c-2-1-1.9,0.2-1.9,1.1c0,0.9,0,36.7,0,36.7c0,2.1,2.8,4.8,5,4.8h80.1c2.2,0,5-2.7,5-4.8
		c0,0,0-35.8,0-36.7C95.2,37.1,95.2,35.9,93.3,36.9z"/>
</g>
</svg>
